<mxfile host="65bd71144e">
    <diagram id="s5CscR8AiD8LRz3H1_Sc" name="Page-1">
        <mxGraphModel dx="702" dy="659" grid="1" gridSize="10" guides="1" tooltips="1" connect="1" arrows="1" fold="1" page="1" pageScale="1" pageWidth="850" pageHeight="1100" math="0" shadow="0">
            <root>
                <mxCell id="0"/>
                <mxCell id="1" parent="0"/>
                <mxCell id="2" value="&lt;p style=&quot;margin:0px;margin-top:4px;text-align:center;&quot;&gt;&lt;i&gt;Curso&lt;/i&gt;&lt;/p&gt;&lt;hr size=&quot;1&quot; style=&quot;border-style:solid;&quot;&gt;&lt;p style=&quot;margin:0px;margin-left:4px;&quot;&gt;&lt;span style=&quot;color: rgb(63, 63, 63);&quot;&gt;- id: int&lt;/span&gt;&lt;br&gt;&lt;/p&gt;&lt;p style=&quot;color: rgb(63, 63, 63); scrollbar-color: rgb(226, 226, 226) rgb(251, 251, 251); margin: 0px 0px 0px 4px;&quot;&gt;-&amp;nbsp;&lt;span style=&quot;scrollbar-color: rgb(226, 226, 226) rgb(251, 251, 251); background-color: transparent; color: rgb(63, 63, 63);&quot;&gt;nome:&amp;nbsp;&lt;/span&gt;&lt;span style=&quot;scrollbar-color: rgb(226, 226, 226) rgb(251, 251, 251); background-color: transparent; color: rgb(63, 63, 63);&quot;&gt;String&lt;/span&gt;&lt;/p&gt;&lt;p style=&quot;color: rgb(63, 63, 63); scrollbar-color: rgb(226, 226, 226) rgb(251, 251, 251); margin: 0px 0px 0px 4px;&quot;&gt;- numTurmas: int&lt;/p&gt;&lt;p style=&quot;color: rgb(63, 63, 63); scrollbar-color: rgb(226, 226, 226) rgb(251, 251, 251); margin: 0px 0px 0px 4px;&quot;&gt;- professores: String&lt;/p&gt;&lt;p style=&quot;color: rgb(63, 63, 63); scrollbar-color: rgb(226, 226, 226) rgb(251, 251, 251); margin: 0px 0px 0px 4px;&quot;&gt;- disciplinas: String&lt;/p&gt;&lt;hr size=&quot;1&quot; style=&quot;border-style:solid;&quot;&gt;&lt;p style=&quot;scrollbar-color: rgb(226, 226, 226) rgb(251, 251, 251); margin: 0px 0px 0px 4px; color: rgb(63, 63, 63);&quot;&gt;+ getId(): int&lt;/p&gt;&lt;p style=&quot;scrollbar-color: rgb(226, 226, 226) rgb(251, 251, 251); margin: 0px 0px 0px 4px; color: rgb(63, 63, 63);&quot;&gt;+ setId(int): void&amp;nbsp;&lt;/p&gt;&lt;div&gt;&lt;br&gt;&lt;/div&gt;" style="verticalAlign=top;align=left;overflow=fill;html=1;whiteSpace=wrap;" vertex="1" parent="1">
                    <mxGeometry x="310" y="180" width="190" height="360" as="geometry"/>
                </mxCell>
            </root>
        </mxGraphModel>
    </diagram>
</mxfile>